# xmcd
#
# Track frame offsets:
#	150
#	11303
#	26770
#	40610
#	57579
#
# Disc length: 951 seconds
# Revision: 0
# Processed by: cddbd v1.5.2PL0 Copyright (c) Steve Scherf et al.
# Submitted via: dBpowerAMP V12.0
#
DISCID=3403b505
DTITLE=Juke Joint 5 - Rock This House
DYEAR=2013
DGENRE=Blues
TTITLE0=I'm So Mad
TTITLE1=Roadrunner
TTITLE2=Ready for My Closeup
TTITLE3=Big Jack's Kitchen
TTITLE4=Rock This House
EXTD=
EXTT0=
EXTT1=
EXTT2=
EXTT3=
EXTT4=
PLAYORDER=
